Coordinates
version=1
nRows=6
nColumns=63
inDegrees=yes

Units are S.I. units (second, meters, Newtons, ...)
If the header above contains a line with 'inDegrees', this indicates whether rotational values are in degrees (yes) or radians (no).

endheader
time	pelvis_tilt	pelvis_list	pelvis_rotation	pelvis_tx	pelvis_ty	pelvis_tz	hip_flexion_r	hip_adduction_r	hip_rotation_r	knee_angle_r	knee_angle_r_beta	ankle_angle_r	subtalar_angle_r	mtp_angle_r	hip_flexion_l	hip_adduction_l	hip_rotation_l	knee_angle_l	knee_angle_l_beta	ankle_angle_l	subtalar_angle_l	mtp_angle_l	L5_S1_Flex_Ext	L5_S1_Lat_Bending	L5_S1_axial_rotation	L4_L5_Flex_Ext	L4_L5_Lat_Bending	L4_L5_axial_rotation	L3_L4_Flex_Ext	L3_L4_Lat_Bending	L3_L4_axial_rotation	L2_L3_Flex_Ext	L2_L3_Lat_Bending	L2_L3_axial_rotation	L1_L2_Flex_Ext	L1_L2_Lat_Bending	L1_L2_axial_rotation	L1_T12_Flex_Ext	L1_T12_Lat_Bending	L1_T12_axial_rotation	Abs_r3	Abs_r2	Abs_r1	Abs_t1	Abs_t2	neck_flexion	neck_bending	neck_rotation	arm_flex_r	arm_add_r	arm_rot_r	elbow_flex_r	pro_sup_r	wrist_flex_r	wrist_dev_r	arm_flex_l	arm_add_l	arm_rot_l	elbow_flex_l	pro_sup_l	wrist_flex_l	wrist_dev_l
      9.90000000	      4.56034128	      0.43580603	    176.69913194	      2.43172034	      0.89391921	      0.57832061	     12.19389296	      1.60125442	     -5.06422709	     21.80179612	      0.38051313	     19.75946883	     -6.63181459	      0.00000000	      6.01449969	      0.23505067	      2.34542001	     11.88703476	      0.20746789	     12.92419374	    -17.09503854	      0.00000000	      0.00202765	     -0.13295624	     -0.05576040	      0.00376554	     -0.17683180	     -0.05924543	      0.00333122	     -0.32326981	     -0.05924543	      0.00231740	     -0.32326981	     -0.04879035	      0.00188287	     -0.27112437	     -0.04530533	      0.00115860	     -0.20594922	     -0.04182030	      0.01448327	     -1.50402760	     -0.31012262	      0.00000000	      0.00000000	     -0.00000000	      0.00000000	      0.00000000	     -4.97419246	     -9.85072879	     48.13882547	     19.47778983	     55.06572875	      0.00000000	      5.00000014	     -9.93923751	    -10.98388068	     34.74647628	     19.52766916	     56.39337002	      0.00000000	      5.00000014
      9.93333333	      4.49253222	      0.00778708	    176.26253562	      2.43223313	      0.89446862	      0.57742146	     12.38680693	      1.21771038	     -4.35549708	     22.11517154	      0.38598256	     20.07446779	     -6.37143899	      0.00000000	      6.09761115	      0.67688798	      1.53161927	     11.83474721	      0.20655530	     12.19595245	    -17.90980546	      0.00000000	      0.00424086	     -0.17549788	      0.04201469	      0.00787570	     -0.23341218	      0.04464061	      0.00696730	     -0.42670554	      0.04464061	      0.00484688	     -0.42670554	      0.03676286	      0.00393806	     -0.35787527	      0.03413694	      0.00242323	     -0.27184621	      0.03151102	      0.03029202	     -1.98526710	      0.23367313	      0.00000000	      0.00000000	     -0.00000000	      0.00000000	      0.00000000	     -4.92803569	     -9.21272068	     47.22662595	     18.58561195	     54.86135417	      0.00000000	      5.00000014	     -9.71545677	    -11.12304188	     34.95925468	     19.14762871	     56.54037849	      0.00000000	      5.00000014
      9.96666667	      4.50329354	     -0.19676376	    175.99302450	      2.43255359	      0.89479385	      0.57692108	     12.54662858	      1.11473814	     -3.44399703	     22.25478721	      0.38841931	     20.10699745	     -6.69012643	      0.00000000	      6.21451615	      0.84855182	      0.39557456	     11.67571580	      0.20377968	     12.07465312	    -18.04941874	      0.00000000	      0.00360538	     -0.18927011	      0.13192421	      0.00669554	     -0.25172925	      0.14016947	      0.00592327	     -0.46019135	      0.14016947	      0.00412058	     -0.46019135	      0.11543368	      0.00334795	     -0.38595961	      0.10718842	      0.00206011	     -0.29317940	      0.09894316	      0.02575284	     -2.14106137	      0.73372288	      0.00000000	      0.00000000	     -0.00000000	      0.00000000	      0.00000000	     -8.31718117	     -6.04720863	     18.80472183	     20.36123226	     60.10145979	      0.00000000	      5.00000014	     -9.08194045	    -11.60234447	     38.57520350	     19.00747373	     58.93486321	      0.00000000	      5.00000014
     10.00000000	      4.49818633	     -0.37237691	    175.92124790	      2.43291808	      0.89495902	      0.57663995	     12.60188895	      1.09307022	     -2.38766707	     22.23737474	      0.38811541	     19.83692238	     -7.75842996	      0.00000000	      6.41551202	      0.98948854	     -0.60070041	     11.72899108	      0.20470951	     12.32599851	    -18.11866584	      0.00000000	      0.00366981	     -0.20609238	      0.14919274	      0.00681521	     -0.27410286	      0.15851728	      0.00602913	     -0.50109301	      0.15851728	      0.00419423	     -0.50109301	      0.13054365	      0.00340779	     -0.42026358	      0.12121910	      0.00209693	     -0.31923709	      0.11189455	      0.02621310	     -2.33135819	      0.82976525	      0.00000000	      0.00000000	     -0.00000000	      0.00000000	      0.00000000	     -9.73570330	     -3.24060384	      3.69171987	     21.59769806	     54.25381122	      0.00000000	      5.00000014	     -8.97463585	    -11.76493860	     39.12270547	     19.03013779	     58.06068387	      0.00000000	      5.00000014
     10.03333333	      4.49298074	     -0.45791125	    176.01666914	      2.43333147	      0.89493107	      0.57651991	     12.56824431	      1.05270222	     -2.23859909	     22.08141064	      0.38539332	     19.41415980	     -8.24271832	      0.00000000	      6.66559408	      1.03457948	     -1.26893720	     11.95403954	      0.20863735	     12.89589727	    -18.17937524	      0.00000000	      0.00363300	     -0.21175997	      0.15688568	      0.00674684	     -0.28164076	      0.16669104	      0.00596865	     -0.51487319	      0.16669104	      0.00415215	     -0.51487319	      0.13727497	      0.00337360	     -0.43182093	      0.12746962	      0.00207589	     -0.32801619	      0.11766426	      0.02595012	     -2.39547113	      0.87255111	      0.00000000	      0.00000000	     -0.00000000	      0.00000000	      0.00000000	    -10.82335315	     -0.57091083	     -8.86441889	     23.54762723	     50.52361963	      0.00000000	      5.00000014	     -8.77389759	    -11.97088062	     40.08678091	     19.12977536	     57.41001896	      0.00000000	      5.00000014
     10.06666667	      4.46279045	     -0.48635558	    176.13756325	      2.43373856	      0.89473808	      0.57644458	     12.56216318	      1.06197362	     -2.35520588	     22.07456202	      0.38527379	     19.05542166	     -8.74214287	      0.00000000	      6.78087255	      1.03558964	     -1.61081960	     12.08465565	      0.21091703	     13.53409441	    -18.24232174	      0.00000000	      0.00327104	     -0.20849585	      0.17471503	      0.00607466	     -0.27729948	      0.18563472	      0.00537400	     -0.50693680	      0.18563472	      0.00373848	     -0.50693680	      0.15287565	      0.00303749	     -0.42516473	      0.14195597	      0.00186907	     -0.32296007	      0.13103628	      0.02336474	     -2.35854673	      0.97171260	      0.00000000	      0.00000000	     -0.00000000	      0.00000000	      0.00000000	    -11.45970644	      1.39247317	    -17.02048736	     25.30585406	     48.96446843	      0.00000000	      5.00000014	     -8.42424048	    -12.20812957	     41.59520290	     19.19782090	     57.34585154	      0.00000000	      5.00000014
